<?xml version="1.0" encoding="utf-8"?>
<!-- Generator: Adobe Illustrator 23.0.0, SVG Export Plug-In . SVG Version: 6.00 Build 0)  -->
<svg version="1.1" xmlns="http://www.w3.org/2000/svg" xmlns:xlink="http://www.w3.org/1999/xlink" x="0px" y="0px"
	 viewBox="0 0 105 105" style="enable-background:new 0 0 105 105;" xml:space="preserve">
<g id="Capa_1">
</g>
<g id="Capa_2">
	<g>
		<g>
			<path d="M49.77,49.78l2.94-3.16l-2.96-13.07l-0.54,1.88c-0.46,1.61-1.05,3.09-1.78,4.43L40.6,8.95C44.33,7.99,48.16,7.5,52,7.5
				c4.56,0,9.08,0.68,13.42,2.02L53.08,64.49L49.77,49.78z"/>
			<path d="M52,8c4.36,0,8.67,0.63,12.83,1.86L53.08,62.21l-2.76-12.29l0.84-0.9l1.74-1.87l0.36-0.39l-0.12-0.52l-2.47-10.9
				l-0.87-3.82l-1.07,3.77c-0.31,1.09-0.68,2.11-1.12,3.07L41.19,9.32C44.73,8.44,48.36,8,52,8 M52,7c-4.15,0-8.17,0.56-11.99,1.59
				l7.21,32.61c1.05-1.64,1.87-3.52,2.47-5.64l2.47,10.9l-1.74,1.87l-1.2,1.29l3.85,17.15l12.93-57.6C61.59,7.77,56.89,7,52,7L52,7z
				"/>
		</g>
		<g>
			<path d="M52,98.5C26.91,98.5,6.5,78.09,6.5,53c0-7.69,1.94-15.22,5.62-21.91c-0.01,0.24-0.01,0.47-0.01,0.7
				c0,6.6,2.25,12.31,6.69,16.96c4.45,4.66,9.84,7.02,16.03,7.02c2.14,0,4.78-0.5,7.85-1.5l9.93,44.21C52.41,98.5,52.2,98.5,52,98.5
				z M72.85,12.56C88.07,20.41,97.5,35.85,97.5,53c0,24.51-19.48,44.55-43.77,45.47L72.85,12.56z"/>
			<path d="M73.19,13.3C87.91,21.16,97,36.26,97,53c0,24.02-18.92,43.71-42.64,44.94L73.19,13.3 M11.64,33.09
				c0.28,6.18,2.56,11.56,6.8,16.01c4.54,4.76,10.06,7.18,16.39,7.18c2.07,0,4.59-0.45,7.48-1.35L51.99,98C27.18,97.99,7,77.81,7,53
				C7,46.06,8.59,39.26,11.64,33.09 M72.5,11.82L53.17,98.7L43.05,53.64c-3.26,1.1-6,1.64-8.22,1.64c-6.07,0-11.3-2.29-15.67-6.87
				c-4.37-4.58-6.55-10.12-6.55-16.62c0-0.96,0.06-1.89,0.16-2.81C8.48,35.97,6,44.2,6,53c0,25.41,20.59,46,46,46s46-20.59,46-46
				C98,34.96,87.61,19.36,72.5,11.82L72.5,11.82z"/>
		</g>
		<g>
			<path d="M34.79,47.5c-3.98,0-7.47-1.55-10.39-4.6C21.48,39.84,20,36.1,20,31.79c0-4.31,1.43-8.05,4.25-11.11
				c2.71-2.95,6.01-4.49,9.82-4.59l6.81,30.12C39.1,47.07,37.06,47.5,34.79,47.5z"/>
			<path d="M33.66,16.61l6.63,29.32c-1.61,0.71-3.45,1.07-5.5,1.07c-3.89,0-7.17-1.45-10.03-4.45c-2.87-3-4.27-6.52-4.27-10.76
				c0-4.18,1.38-7.81,4.11-10.77C27.17,18.24,30.13,16.79,33.66,16.61 M34.46,15.59c-4.14,0-7.67,1.59-10.58,4.76
				c-2.92,3.17-4.38,6.99-4.38,11.45c0,4.46,1.51,8.28,4.54,11.45C27.07,46.41,30.65,48,34.79,48c2.51,0,4.73-0.5,6.65-1.51
				L34.46,15.59L34.46,15.59z"/>
		</g>
	</g>
</g>
</svg>
