<?xml version="1.0" encoding="utf-8"?>
<!-- Generator: Adobe Illustrator 23.0.0, SVG Export Plug-In . SVG Version: 6.00 Build 0)  -->
<svg version="1.1" xmlns="http://www.w3.org/2000/svg" xmlns:xlink="http://www.w3.org/1999/xlink" x="0px" y="0px"
	 viewBox="0 0 165 165" style="enable-background:new 0 0 165 165;" xml:space="preserve">
<style type="text/css">
	.st0{font-family:'CenturyGothic';}
	.st1{font-size:28.3612px;}
	.st2{font-size:8.5799px;}
</style>
<g id="Capa_1">
</g>
<g id="Capa_2">
	<g>
		<g>
			<path d="M76.77,50.78l2.94-3.16l-2.96-13.07l-0.54,1.88c-0.46,1.61-1.05,3.09-1.78,4.43L67.6,9.95C71.33,8.99,75.16,8.5,79,8.5
				c4.56,0,9.08,0.68,13.42,2.02L80.08,65.49L76.77,50.78z"/>
			<path d="M79,9c4.36,0,8.67,0.63,12.83,1.86L80.08,63.21l-2.76-12.29l0.84-0.9l1.74-1.87l0.36-0.39l-0.12-0.52l-2.47-10.9
				l-0.87-3.82l-1.07,3.77c-0.31,1.09-0.68,2.11-1.12,3.07l-6.42-29.05C71.73,9.44,75.36,9,79,9 M79,8c-4.15,0-8.17,0.56-11.99,1.59
				l7.21,32.61c1.05-1.64,1.87-3.52,2.47-5.64l2.47,10.9l-1.74,1.87l-1.2,1.29l3.85,17.15l12.93-57.6C88.59,8.77,83.89,8,79,8L79,8z
				"/>
		</g>
		<g>
			<path d="M79,99.5c-25.09,0-45.5-20.41-45.5-45.5c0-7.69,1.94-15.22,5.62-21.91c-0.01,0.24-0.01,0.47-0.01,0.7
				c0,6.6,2.25,12.31,6.69,16.96c4.45,4.66,9.84,7.02,16.03,7.02c2.14,0,4.78-0.5,7.85-1.5l9.93,44.21C79.41,99.5,79.2,99.5,79,99.5
				z M99.85,13.56C115.07,21.41,124.5,36.85,124.5,54c0,24.51-19.48,44.55-43.77,45.47L99.85,13.56z"/>
			<path d="M100.19,14.3C114.91,22.16,124,37.26,124,54c0,24.02-18.92,43.71-42.64,44.94L100.19,14.3 M38.64,34.09
				c0.28,6.18,2.56,11.56,6.8,16.01c4.54,4.76,10.06,7.18,16.39,7.18c2.07,0,4.59-0.45,7.48-1.35L78.99,99
				C54.18,98.99,34,78.81,34,54C34,47.06,35.59,40.26,38.64,34.09 M99.5,12.82L80.17,99.7L70.05,54.64c-3.26,1.1-6,1.64-8.22,1.64
				c-6.07,0-11.3-2.29-15.67-6.87c-4.37-4.58-6.55-10.12-6.55-16.62c0-0.96,0.06-1.89,0.16-2.81C35.48,36.97,33,45.2,33,54
				c0,25.41,20.59,46,46,46s46-20.59,46-46C125,35.96,114.61,20.36,99.5,12.82L99.5,12.82z"/>
		</g>
		<g>
			<path d="M61.79,48.5c-3.98,0-7.47-1.55-10.39-4.6C48.48,40.84,47,37.1,47,32.79c0-4.31,1.43-8.05,4.25-11.11
				c2.71-2.95,6.01-4.49,9.82-4.59l6.81,30.12C66.1,48.07,64.06,48.5,61.79,48.5z"/>
			<path d="M60.66,17.61l6.63,29.32c-1.61,0.71-3.45,1.07-5.5,1.07c-3.89,0-7.17-1.45-10.03-4.45c-2.87-3-4.27-6.52-4.27-10.76
				c0-4.18,1.38-7.81,4.11-10.77C54.17,19.24,57.13,17.79,60.66,17.61 M61.46,16.59c-4.14,0-7.67,1.59-10.58,4.76
				c-2.92,3.17-4.38,6.99-4.38,11.45c0,4.46,1.51,8.28,4.54,11.45C54.07,47.41,57.65,49,61.79,49c2.51,0,4.73-0.5,6.65-1.51
				L61.46,16.59L61.46,16.59z"/>
		</g>
	</g>
	<text transform="matrix(0.4364 0 0 1 52 127.3613)" class="st0 st1">&lt;/OVV&gt;</text>
	<text transform="matrix(0.3437 0 0 1 66 137.3701)" class="st0 st2">D E V E L O P E R</text>
</g>
</svg>
