<?xml version="1.0" encoding="utf-8"?>
<!-- Generator: Adobe Illustrator 23.0.0, SVG Export Plug-In . SVG Version: 6.00 Build 0)  -->
<svg version="1.1" id="Capa_1" xmlns="http://www.w3.org/2000/svg" xmlns:xlink="http://www.w3.org/1999/xlink" x="0px" y="0px"
	 viewBox="0 0 250 250" style="enable-background:new 0 0 250 250;" xml:space="preserve">
<style type="text/css">
	.st0{font-family:'CenturyGothic';}
	.st1{font-size:28.3612px;}
	.st2{font-size:12.6064px;}
</style>
<g>
	<g>
		<path d="M117.21,83.42l5.14-4.91l-4.83-18.92l-0.53,1.66c-0.91,2.84-2.13,5.43-3.64,7.72l-12.23-49.13
			c6.66-1.55,13.51-2.34,20.38-2.34c8.13,0,16.17,1.09,23.91,3.24l-22.02,87.14L117.21,83.42z"/>
		<path d="M121.5,18c7.92,0,15.76,1.04,23.3,3.09l-21.41,84.75l-5.63-22.25l1.67-1.6l3.05-2.91l0.42-0.4l-0.14-0.57l-4.33-16.95
			l-0.86-3.37l-1.06,3.31c-0.77,2.4-1.76,4.61-2.96,6.61l-11.83-47.49C108.2,18.74,114.84,18,121.5,18 M121.5,17
			c-7.26,0-14.29,0.87-20.99,2.47l12.62,50.69c1.84-2.56,3.28-5.48,4.33-8.76l4.33,16.95l-3.05,2.91l-2.1,2l6.74,26.66l22.62-89.53
			C138.28,18.19,130.05,17,121.5,17L121.5,17z"/>
	</g>
	<g>
		<path d="M121.5,159.5c-44.11,0-80-31.85-80-71c0-12.47,3.68-24.67,10.65-35.41c-0.06,0.85-0.09,1.66-0.09,2.45
			c0,10.2,3.91,19.01,11.63,26.19c7.71,7.17,17.04,10.81,27.76,10.81c3.81,0,8.52-0.82,14.03-2.43l17.54,69.37
			C122.51,159.5,122.01,159.5,121.5,159.5z M157.71,25.19c27.02,12.19,43.79,36.4,43.79,63.31c0,38.38-34.5,69.75-77.42,70.96
			L157.71,25.19z"/>
		<path d="M158.05,25.9c12.56,5.78,23.17,14.42,30.74,25.06C196.78,62.18,201,75.16,201,88.5c0,37.92-33.93,68.94-76.28,70.44
			L158.05,25.9 M51.57,54.96c0,0.2-0.01,0.39-0.01,0.58c0,10.34,3.97,19.28,11.79,26.56c7.8,7.26,17.25,10.95,28.1,10.95
			c3.74,0,8.33-0.77,13.67-2.3L122.38,159c-0.29,0-0.59,0-0.88,0C77.66,159,42,127.37,42,88.5C42,76.74,45.3,65.22,51.57,54.96
			 M157.37,24.49l-33.83,135.04l-17.72-70.04c-5.7,1.7-10.5,2.55-14.38,2.55c-10.63,0-19.77-3.56-27.41-10.68
			c-7.65-7.12-11.47-15.73-11.47-25.83c0-1.49,0.11-2.94,0.27-4.37C45.33,62.04,41,74.82,41,88.5c0,39.49,36.04,71.5,80.5,71.5
			S202,127.99,202,88.5C202,60.46,183.82,36.21,157.37,24.49L157.37,24.49z"/>
	</g>
	<g>
		<path d="M91.38,80.23c-7.08,0-13.29-2.44-18.47-7.26c-5.17-4.81-7.79-10.67-7.79-17.43c0-6.76,2.53-12.63,7.51-17.44
			c4.89-4.72,10.88-7.16,17.79-7.25l12.02,47.25C99.24,79.51,95.53,80.23,91.38,80.23z"/>
		<path d="M90.03,31.36l11.82,46.45c-3.04,1.28-6.55,1.92-10.46,1.92c-6.95,0-13.05-2.4-18.13-7.12
			c-5.06-4.71-7.63-10.45-7.63-17.06c0-6.62,2.47-12.37,7.36-17.08C77.68,33.92,83.41,31.53,90.03,31.36 M90.8,30.35
			c-7.24,0-13.42,2.46-18.52,7.39c-5.11,4.93-7.66,10.86-7.66,17.8c0,6.94,2.65,12.87,7.95,17.8c5.3,4.93,11.57,7.39,18.81,7.39
			c4.39,0,8.27-0.78,11.63-2.35L90.8,30.35L90.8,30.35z"/>
	</g>
</g>
<text transform="matrix(0.5584 0 0 1 31.0005 187.3613)" class="st0 st1">OSCAR VEGA VENEGAS</text>
<rect x="36" y="191" width="175" height="1"/>
<text transform="matrix(0.8035 0 0 1 85 207.1348)" class="st0 st2">D E V E L O P E R</text>
</svg>
